<?xml version="1.0" ?><svg data-name="Слой 1" id="Слой_1" viewBox="0 0 128 128" xmlns="http://www.w3.org/2000/svg"><title/><path d="M127.29,67.75A4,4,0,0,0,124,66H112V34a5.87,5.87,0,0,0-6-6H46a1.84,1.84,0,0,1-2-2V22a5.77,5.77,0,0,0-5.94-6H6.35A6.24,6.24,0,0,0,0,22.1V110s0,.08,0,.12a.78.78,0,0,0,0,.14,1.53,1.53,0,0,0,.08.37s0,0,0,.05A2,2,0,0,0,2,112H110a2,2,0,0,0,2-1.77l15.76-38.77A4,4,0,0,0,127.29,67.75ZM6.35,20H38.06A1.81,1.81,0,0,1,40,22v4a5.8,5.8,0,0,0,6,6h60a1.88,1.88,0,0,1,2,2V66H21.74a6,6,0,0,0-5.59,3.82L4,99.75V22.1A2.27,2.27,0,0,1,6.35,20Zm102.22,88H5L19.88,71.3A2,2,0,0,1,21.74,70L124,70Z"/></svg>